PathFileType	4	(X/Y/Z)	D:\TRACE\spotREDO_2-26-24\spot_justArm_Motion_3_3-v60.trc
DataRate	CameraRate	NumFrames	NumMarkers	Units	OrigDataRate	OrigDataStartFrame	OrigNumFrames
100.00	100.00	      42	9	mm	100.00	1	      6633
Frame#	Time	front left toe			Front right toe			aft left toe			aft right toe			Arm			FL body			FR body			AL Body			AR Body			
		X1	Y1	Z1	X2	Y2	Z2	X3	Y3	Z3	X4	Y4	Z4	X5	Y5	Z5	X6	Y6	Z6	X7	Y7	Z7	X8	Y8	Z8	X9	Y9	Z9	

1	0.000	-223.92148	72.82455	-250.84402	270.90475	69.53390	-221.66158	-258.13165	-35.02267	357.18552	229.88364	-35.34520	386.78494	43.63116	972.03271	-392.48215	-48.96701	618.42340	-343.35043	106.41059	624.09363	-335.68796	-96.67715	471.95078	526.80261	50.93097	472.48636	535.74689	
2	0.010	-223.93608	72.82478	-250.83676	270.91342	69.56004	-221.65546	-258.13782	-35.04315	357.15131	229.96193	-35.31314	386.78357	43.66092	972.61011	-392.95297	-48.87538	618.40137	-343.34863	106.52071	624.08722	-335.61713	-96.64340	472.00232	526.85107	51.00867	472.48834	535.82947	
3	0.020	-223.91441	72.83646	-250.83966	270.94885	69.55673	-221.67085	-258.17572	-35.03036	357.15701	229.93620	-35.30482	386.75882	43.31279	973.28076	-393.70294	-48.84452	618.36835	-343.31485	106.60443	624.09723	-335.54938	-96.62598	471.99072	526.88617	50.91283	472.45935	535.87073	
4	0.030	-223.89621	72.83672	-250.84778	270.94934	69.54066	-221.68800	-258.15939	-35.03991	357.17773	230.00804	-35.26803	386.77228	43.57613	973.75592	-394.29376	-48.84124	618.40601	-343.26532	106.73482	624.11658	-335.42920	-96.63663	472.01639	526.91205	50.96450	472.44031	535.94489	
5	0.040	-223.91881	72.84991	-250.83784	270.88870	69.50832	-221.67023	-258.15005	-35.04794	357.19849	229.86972	-35.33205	386.75897	44.00645	974.05707	-394.80472	-48.81799	618.43390	-343.19080	106.81291	624.13104	-335.33463	-96.68430	471.94522	526.94989	50.79937	472.44312	535.98468	
6	0.050	-223.87170	72.84172	-250.86040	270.95255	69.80185	-221.42416	-258.13232	-35.02935	357.16327	229.81322	-35.32592	386.78677	43.95867	974.62445	-395.27112	-48.78872	618.41095	-343.16394	106.86694	624.12756	-335.26538	-96.68929	471.95844	527.02618	50.68147	472.41791	536.08014	
7	0.060	-223.89969	72.82964	-250.83974	270.85074	69.45918	-221.67369	-258.15237	-35.07219	357.20117	229.83438	-35.33088	386.77554	43.56243	975.18231	-396.03809	-48.80416	618.38403	-343.12140	106.87202	624.11078	-335.21774	-96.68138	471.97501	527.11401	50.72125	472.41666	536.10974	
8	0.070	-223.89186	72.85120	-250.83588	271.11725	69.87479	-221.33580	-258.13177	-35.01437	357.17554	229.92075	-35.28493	386.79620	43.71847	975.68652	-396.66684	-48.78243	618.42340	-343.07062	106.87326	624.10669	-335.15201	-96.66142	471.99966	527.14856	50.74268	472.45435	536.21436	
9	0.080	-223.88962	72.84572	-250.81796	271.09247	69.87287	-221.37111	-258.16037	-34.98965	357.19711	229.94818	-35.26823	386.79208	43.82444	976.08002	-397.19913	-48.81479	618.42914	-343.00018	106.89189	624.11536	-335.11609	-96.64411	472.02289	527.23895	50.79119	472.47342	536.25940	
10	0.090	-223.88951	72.83322	-250.84479	271.18533	69.87713	-221.34398	-258.14908	-34.99993	357.20148	229.92712	-35.28756	386.79974	43.95343	976.54309	-397.66327	-48.76137	618.39752	-342.99036	106.88840	624.11627	-335.06418	-96.75260	471.99710	527.24506	50.76346	472.48337	536.33148	
11	0.100	-223.98534	72.96814	-250.74580	270.95804	69.81438	-221.40649	-258.16815	-35.03496	357.21310	229.94139	-35.28268	386.83759	43.93308	977.02179	-398.18387	-48.85697	618.40686	-342.87225	106.87447	624.11511	-334.99240	-96.65609	472.03946	527.39923	50.78209	472.45242	536.40436	
12	0.110	-223.91193	72.87305	-250.82581	270.87329	69.47583	-221.63213	-258.16785	-35.05581	357.19196	229.92242	-35.33529	386.80505	43.88104	977.49445	-398.73492	-48.83881	618.29877	-342.82098	106.87781	624.09589	-334.91882	-96.66187	472.06265	527.44019	50.71543	472.41501	536.43311	
13	0.120	-223.92702	72.83120	-250.83617	270.93472	69.79549	-221.40511	-258.16516	-35.02049	357.19992	229.84445	-35.32418	386.80170	43.73153	978.05011	-399.24557	-48.96357	618.32642	-342.68509	106.87016	624.08429	-334.84018	-96.70449	472.06317	527.49475	50.69214	472.42184	536.48706	
14	0.130	-223.94661	72.84308	-250.81667	270.85883	69.48916	-221.63983	-258.16385	-35.01114	357.22458	229.93118	-35.30941	386.80502	43.95133	978.55847	-399.63446	-48.94433	618.29260	-342.62503	106.76804	624.27765	-334.91983	-96.66817	472.05557	527.58527	50.77145	472.41266	536.56488	
15	0.140	-223.96355	72.84116	-250.82619	270.95523	69.53432	-221.63600	-258.18817	-35.05077	357.21393	229.92345	-35.28062	386.80048	44.03408	979.12091	-400.05847	-49.03748	618.28717	-342.57779	106.79636	624.30951	-334.84799	-96.58588	472.05438	527.64642	50.85942	472.41782	536.60809	
16	0.150	-224.00397	72.91898	-250.76859	270.98883	69.81929	-221.37033	-258.16458	-35.04491	357.24307	229.92780	-35.30558	386.81091	43.77777	979.57050	-400.92706	-49.03250	618.26617	-342.50006	106.75288	624.29077	-334.80106	-96.63039	472.06323	527.71985	50.83858	472.43600	536.67371	
17	0.160	-224.06351	72.94646	-250.75389	270.96378	69.80810	-221.40964	-258.15375	-35.04866	357.24707	229.94437	-35.31551	386.84024	43.65006	980.09711	-401.36679	-49.08561	618.25665	-342.48688	106.73225	624.08173	-334.58023	-96.60938	472.03333	527.80682	50.81995	472.40970	536.73370	
18	0.170	-223.95815	72.83279	-250.82971	270.96820	69.81725	-221.37070	-258.18848	-34.97321	357.25085	229.97495	-35.30787	386.84015	43.82505	980.44232	-401.71957	-49.12173	618.30353	-342.39545	106.70575	624.12610	-334.47141	-96.60097	472.04202	527.86163	50.82920	472.41495	536.79846	
19	0.180	-224.02437	72.88708	-250.80714	270.83569	69.50211	-221.64001	-258.15146	-35.01177	357.27173	229.81311	-35.32631	386.79108	44.13132	980.86804	-402.41443	-49.15989	618.27551	-342.36670	106.65955	624.12177	-334.43106	-96.62411	472.02072	527.94678	50.83569	472.45013	536.84839	
20	0.190	-223.97298	72.83040	-250.82431	270.86829	69.53453	-221.64212	-258.15497	-35.06244	357.25986	229.90256	-35.27208	386.79208	43.79546	981.51837	-403.27072	-49.20594	618.32196	-342.34503	106.62254	624.13092	-334.36041	-96.73132	472.03445	527.97437	50.77758	472.49863	536.90570	
21	0.200	-223.97604	72.81653	-250.83098	270.83832	69.51586	-221.67804	-258.16812	-34.99357	357.23984	229.82678	-35.31396	386.77692	43.81432	981.79639	-403.63690	-49.23026	618.31360	-342.30444	106.58801	624.14581	-334.30493	-96.71642	472.04980	528.07410	50.78973	472.49292	536.96027	
22	0.210	-223.99228	72.85985	-250.81435	270.82101	69.49005	-221.65384	-258.18207	-35.02504	357.27753	229.80208	-35.30474	386.81393	43.72832	982.31781	-404.22839	-49.23415	618.29578	-342.26465	106.52229	624.16644	-334.25308	-96.78271	472.05969	528.16138	50.69999	472.51013	537.00562	
23	0.220	-224.00993	72.83432	-250.81516	270.87329	69.51178	-221.64220	-258.19382	-35.00260	357.27606	229.81287	-35.32091	386.79358	43.83318	982.80823	-405.07022	-49.24086	618.30145	-342.25729	106.50990	624.17969	-334.22449	-96.77278	472.04556	528.19678	50.68918	472.50204	537.02966	
24	0.230	-224.07907	72.94500	-250.74342	270.87619	69.50266	-221.64023	-258.17142	-34.97931	357.27200	229.89320	-35.24081	386.80795	43.63652	983.29230	-405.75974	-49.23415	618.34277	-342.22211	106.54782	624.17059	-334.15210	-96.86708	472.06659	528.25946	50.64639	472.50369	537.06934	
25	0.240	-224.06673	72.92894	-250.75496	270.93454	69.53259	-221.64609	-258.15955	-35.05714	357.28741	229.88095	-35.27492	386.79327	43.99307	983.66949	-406.11725	-49.29892	618.35498	-342.18124	106.54868	624.15961	-334.09772	-96.85980	472.05804	528.30939	50.67067	472.50330	537.12335	
26	0.250	-223.99948	72.84427	-250.80879	270.97055	69.60157	-221.63264	-258.18658	-35.07191	357.29599	229.96172	-35.24744	386.84225	44.11293	983.99969	-406.70486	-49.22222	618.36096	-342.14206	106.56463	624.14203	-334.04581	-96.95643	472.02493	528.34076	50.61317	472.51132	537.17841	
27	0.260	-223.99287	72.82730	-250.81470	270.89966	69.54622	-221.64420	-258.17148	-35.04999	357.27435	229.87349	-35.25275	386.82330	44.01631	984.61920	-407.38593	-49.36744	618.45068	-342.11719	106.58209	624.12292	-333.98737	-97.03551	472.04413	528.40802	50.59945	472.47794	537.24664	
28	0.270	-224.04086	72.88584	-250.79179	270.74704	69.50337	-221.62076	-258.20758	-35.06773	357.27768	229.75494	-35.28502	386.83963	43.79116	985.24646	-408.10931	-49.31263	618.41589	-342.02203	106.57170	624.09528	-333.92023	-97.14783	472.02936	528.43451	50.54707	472.45877	537.28662	
29	0.280	-223.96869	72.82016	-250.82950	270.82162	69.80669	-221.40465	-258.21381	-35.07555	357.31955	229.71800	-35.29801	386.83795	43.94301	985.64844	-408.49713	-49.28767	618.45380	-341.99658	106.57751	624.07715	-333.87701	-97.16614	471.99640	528.49115	50.54824	472.45493	537.33655	
30	0.290	-223.99593	72.84800	-250.80730	270.81055	69.48395	-221.61128	-258.21628	-35.10307	357.32849	229.79349	-35.29742	386.83859	44.09445	986.04346	-409.10410	-49.33414	618.42145	-341.93057	106.54212	624.05212	-333.83240	-97.31672	471.95114	528.42737	50.58480	472.44003	537.43829	
31	0.300	-223.95248	72.82140	-250.82402	270.82217	69.49689	-221.62642	-258.24149	-35.06994	357.36227	229.79111	-35.26345	386.84079	43.96981	986.45502	-409.59518	-49.38758	618.48450	-341.81122	106.52053	624.04791	-333.78552	-97.20155	471.98450	528.56714	50.55043	472.43423	537.46045	
32	0.310	-223.99316	72.86367	-250.80162	270.83752	69.49381	-221.60577	-258.17331	-35.12918	357.29193	229.83783	-35.30513	386.86533	43.93948	986.90735	-410.14658	-49.38837	618.54724	-341.71579	106.49433	624.01672	-333.73419	-97.16648	471.95770	528.62573	50.59620	472.43002	537.54156	
33	0.320	-223.98621	72.83902	-250.80499	271.03073	69.88752	-221.27473	-258.21359	-35.06841	357.36786	229.84473	-35.30580	386.84152	43.93525	987.59039	-410.80316	-49.38417	618.51208	-341.64835	106.50775	624.01093	-333.71036	-97.12587	471.97137	528.69678	50.56560	472.43173	537.58337	
34	0.330	-223.96770	72.83291	-250.80945	270.79416	69.47150	-221.61815	-258.19534	-35.05506	357.35651	229.79021	-35.28680	386.88501	44.11714	988.20386	-411.21945	-49.36820	618.49725	-341.58051	106.45852	623.99329	-333.66946	-97.17360	472.00739	528.71320	50.60628	472.45898	537.70502	
35	0.340	-224.00201	72.83713	-250.80412	270.98743	69.86596	-221.35493	-258.21777	-35.11683	357.30023	229.78217	-35.28448	386.83289	44.20309	988.63519	-411.62466	-49.37450	618.50671	-341.52783	106.44705	623.98450	-333.64651	-97.13947	472.05676	528.76324	50.60432	472.47504	537.77130	
36	0.350	-224.01588	72.85054	-250.77435	270.91449	69.52556	-221.59044	-258.18832	-35.04678	357.36121	229.77960	-35.27295	386.84372	44.06570	989.14417	-412.11932	-49.38974	618.47455	-341.47656	106.43888	623.97144	-333.62796	-97.07820	472.08536	528.80334	50.64647	472.48471	537.81116	
37	0.360	-223.99057	72.81350	-250.80840	270.99686	69.88385	-221.29593	-258.15799	-35.07515	357.34222	229.84232	-35.25556	386.81638	43.91106	989.85620	-412.78189	-49.42996	618.51953	-341.42700	106.39872	623.97375	-333.59863	-97.06577	472.06909	528.86969	50.62297	472.43103	537.85895	
38	0.370	-224.08543	72.98926	-250.70961	270.91296	69.53706	-221.56892	-258.15961	-35.05733	357.28799	229.87660	-35.27469	386.82547	44.14735	990.55176	-413.37463	-49.44699	618.53906	-341.40186	106.38383	623.97290	-333.56650	-97.00980	472.04541	528.94971	50.62556	472.45743	537.90356	
39	0.380	-224.00778	72.86616	-250.78465	270.89310	69.54027	-221.60240	-258.21622	-35.03413	357.32898	229.93054	-35.27701	386.85883	44.28086	990.95966	-413.73972	-49.38131	618.55267	-341.32361	106.34565	623.95697	-333.55460	-96.88274	471.99829	529.01422	50.65186	472.46967	537.96161	
40	0.390	-224.00299	72.86095	-250.78827	270.83344	69.53065	-221.60544	-258.18521	-35.06597	357.37860	229.89841	-35.29269	386.85117	44.46285	991.30676	-414.10376	-49.38228	618.54767	-341.25443	106.34753	623.96301	-333.52383	-96.98683	471.93509	529.01709	50.63639	472.44217	538.00110	
41	0.400	-223.98026	72.85521	-250.79117	271.06854	69.88954	-221.29054	-258.18640	-35.04326	357.39337	229.91916	-35.27336	386.86755	44.27054	991.94830	-414.95526	-49.06973	618.41260	-340.96719	106.33846	623.97729	-333.48389	-96.87882	471.97540	529.15454	50.60983	472.40625	538.03308	
42	0.410	-224.00633	72.83993	-250.77826	270.84363	69.48595	-221.62047	-258.16092	-35.09837	357.40543	229.83426	-35.31215	386.83069	44.19578	992.70990	-415.48306	-49.28589	618.54553	-341.13989	106.34003	623.95563	-333.45007	-96.87793	471.98138	529.19843	50.59811	472.39325	538.09924	
